<svg width="16" height="16" viewBox="0 0 16 16" fill="none" xmlns="http://www.w3.org/2000/svg">
<path d="M11.3529 0H2.38283C1.06683 0 0 1.08942 0 2.4333V11.5933C0 12.9372 1.06683 14.0266 2.38283 14.0266H11.3529C12.6689 14.0266 13.7357 12.9372 13.7357 11.5933V2.4333C13.7357 1.08942 12.6689 0 11.3529 0Z" fill="white"/>
<path d="M14.8513 2.68331V11.7372C14.8513 13.628 13.3446 15.1666 11.4938 15.1666H3.2736C3.82639 15.6839 4.56318 16 5.37234 16H12.8919C14.6088 16 16 14.5785 16 12.8261V5.14727C16 4.15351 15.5519 3.26588 14.8521 2.68409L14.8513 2.68331Z" fill="white"/>
</svg>
