<svg width="16" height="16" viewBox="0 0 16 16" fill="none" xmlns="http://www.w3.org/2000/svg">
<path d="M12.2419 3.96622H15.9993V3.50614C15.9993 1.57013 14.4299 0 12.4931 0H9.65959L12.2419 3.96622Z" fill="white"/>
<path d="M7.00863 3.96622H10.8646L8.28226 0H4.42631L7.00863 3.96622Z" fill="white"/>
<path d="M5.63056 3.96622L3.0665 0.0284814C1.3379 0.244648 0 1.71838 0 3.50614V3.96622H5.63056Z" fill="white"/>
<path d="M0 5.12082V12.4939C0 14.4299 1.5694 16 3.50614 16H12.4939C14.4299 16 16 14.4306 16 12.4939V5.12082H0ZM10.3979 10.192L6.49669 12.4668C6.14834 12.6699 5.71163 12.4186 5.71163 12.0155V7.46579C5.71163 7.06267 6.14907 6.81145 6.49669 7.01447L10.3979 9.28933C10.7433 9.49089 10.7433 9.99041 10.3979 10.192Z" fill="white"/>
</svg>
