<svg width="20" height="21" viewBox="0 0 20 21" fill="none" xmlns="http://www.w3.org/2000/svg">
<path d="M5.41162 21C5.09195 20.8456 4.90788 20.5865 4.86367 20.2374C4.81946 19.8884 4.93636 17.8996 4.85474 17.8072C3.53395 17.4845 2.34622 16.7071 1.55085 15.644C0.3882 14.0897 0.0638483 11.9617 0.0107106 10.0797C-0.0628319 7.44751 0.187128 3.59279 2.52518 1.84385C5.73512 -0.556772 13.1723 -0.485731 16.6628 1.32028C20.1512 3.12547 20.2051 8.23553 19.8646 11.5527C19.5513 14.6059 18.4508 16.8443 15.2638 17.8138C13.0328 18.4926 10.6578 18.5883 8.33207 18.4577C7.53543 19.3131 6.85484 20.3799 5.8363 20.9996H5.4112L5.41162 21ZM9.01648 1.50343C6.61041 1.61595 3.67423 2.17935 2.45674 4.40053C1.36253 6.39626 1.27836 10.7458 1.89561 12.8939C2.40531 14.667 3.57944 15.9322 5.435 16.4488L5.49282 20.2452C5.67391 20.4666 6.06628 19.9902 6.19891 19.8527C7.07844 18.9406 7.82577 17.8549 8.71508 16.9506C10.6927 17.0525 12.771 16.8919 14.6691 16.338C17.3642 15.5516 18.1587 13.5969 18.3772 11.0604C18.5685 8.83589 18.5468 5.09698 16.8885 3.35667C15.3267 1.71738 11.199 1.40077 9.01648 1.50302V1.50343Z" fill="#E8E8E8"/>
<path d="M8.7848 10.9446C9.20693 11.3408 10.2408 12.0065 10.8312 12.027C11.6644 12.0562 11.6121 10.7906 12.6477 11.0932C13.1038 11.2267 14.3974 12.1638 14.7443 12.5144C15.2897 13.0655 14.8701 13.6749 14.4454 14.1562C13.6424 15.0658 13.1446 15.067 12.0568 14.6137C9.1117 13.3862 6.86547 11.4361 5.42353 8.67246C5.17484 8.1957 4.55377 7.00196 4.45217 6.53505C4.30041 5.83573 4.82371 5.22181 5.34871 4.8124C5.72365 4.52002 6.22569 4.18986 6.6882 4.50195C7.02106 4.72658 8.10719 6.25705 8.2496 6.64388C8.40689 7.07136 8.31506 7.37195 7.98391 7.68075C7.8381 7.81668 7.58984 7.93617 7.47549 8.09263C7.1996 8.47001 7.4028 8.84657 7.57156 9.22395C7.8347 9.81323 8.30741 10.497 8.78395 10.9441L8.7848 10.9446Z" fill="#E8E8E8"/>
<path d="M9.73448 3.79441C9.9449 3.73282 10.5758 3.80304 10.8193 3.83959C12.8305 4.14141 14.4114 5.51132 15.0304 7.36209C15.2098 7.8988 15.4342 8.95991 15.3615 9.50607C15.3365 9.69537 15.1822 9.76313 14.9994 9.72905C14.7196 9.67689 14.828 9.13197 14.8064 8.93075C14.5283 6.3671 13.0396 4.62843 10.3215 4.32004C10.1098 4.29581 9.78081 4.39478 9.64436 4.19397C9.56274 4.07406 9.58442 3.83835 9.7349 3.79441H9.73448Z" fill="#E8E8E8"/>
<path d="M13.4996 9.1447C13.3466 9.00631 13.4244 8.59279 13.4031 8.39774C13.2688 7.16868 12.4445 6.18313 11.2121 5.83819C10.9736 5.77126 10.2803 5.71089 10.1553 5.62753C9.95383 5.49366 10.0809 5.13763 10.3636 5.13476C11.8315 5.12162 13.3049 6.19709 13.7559 7.52471C13.8728 7.86924 14.0459 8.7127 13.9472 9.04409C13.8992 9.20547 13.6174 9.25065 13.4996 9.14429V9.1447Z" fill="#E8E8E8"/>
<path d="M12.1393 8.69381C12.0173 8.58335 12.0679 8.36283 12.039 8.23759C11.9374 7.79861 11.7775 7.39535 11.3074 7.22165C11.0833 7.1387 10.557 7.14733 10.4886 6.94447C10.2382 6.20161 11.7142 6.74736 12.0215 7.02454C12.3574 7.32801 12.6409 8.03966 12.5971 8.47946C12.5737 8.71311 12.3063 8.84493 12.1393 8.69381Z" fill="#E8E8E8"/>
</svg>
