<svg width="17" height="17" viewBox="0 0 17 17" fill="none" xmlns="http://www.w3.org/2000/svg">
<path d="M13.0299 4.974C12.467 4.9751 12.0093 4.51931 12.0082 3.95638C12.0071 3.39346 12.4629 2.93574 13.0261 2.93464C13.5893 2.93354 14.047 3.3896 14.0481 3.95253C14.0489 4.51545 13.5931 4.9729 13.0299 4.974Z" fill="#E8E8E8"/>
<path fill-rule="evenodd" clip-rule="evenodd" d="M8.50813 12.864C6.0981 12.8687 4.14028 10.9189 4.13561 8.50826C4.13092 6.0982 6.08129 4.14008 8.49133 4.13539C10.9019 4.13071 12.86 6.08168 12.8647 8.49146C12.8694 10.9021 10.9184 12.8594 8.50813 12.864ZM8.49436 5.66692C6.93009 5.66967 5.66379 6.94066 5.66655 8.50523C5.66957 10.0701 6.94083 11.3361 8.5051 11.3331C10.0699 11.33 11.3362 10.0593 11.3332 8.49449C11.3302 6.92964 10.0589 5.66389 8.49436 5.66692Z" fill="#E8E8E8"/>
<path fill-rule="evenodd" clip-rule="evenodd" d="M2.91777 0.457923C3.45756 0.246412 4.07528 0.101548 4.97969 0.0588612C5.88633 0.0153514 6.17576 0.00543364 8.48362 0.00102894C10.792 -0.00337576 11.0815 0.00543194 11.9881 0.0456403C12.8928 0.0847471 13.5108 0.227409 14.0517 0.436719C14.6113 0.652357 15.0861 0.942637 15.5592 1.41385C16.0324 1.88562 16.3237 2.35877 16.5421 2.91756C16.7533 3.4579 16.8982 4.07508 16.9412 4.98006C16.9841 5.88641 16.9946 6.17558 16.999 8.48375C17.0034 10.7916 16.994 11.0814 16.9544 11.9885C16.915 12.8927 16.7726 13.511 16.5633 14.0516C16.3471 14.6112 16.0574 15.086 15.5862 15.5592C15.115 16.0326 14.6413 16.3237 14.0825 16.5424C13.5422 16.7533 12.925 16.8982 12.0206 16.9414C11.114 16.9844 10.8245 16.9946 8.51584 16.999C6.20825 17.0034 5.91882 16.9946 5.0122 16.9546C4.1075 16.915 3.48923 16.7726 2.94861 16.5636C2.38901 16.3471 1.91421 16.0576 1.44107 15.5861C0.967661 15.1147 0.676023 14.6412 0.457908 14.0824C0.246399 13.5424 0.102076 12.9249 0.0588431 12.0208C0.0156087 11.1139 0.00542234 10.8241 0.00101934 8.51625C-0.00340066 6.20808 0.00569264 5.91891 0.0453451 5.01228C0.0852832 4.10731 0.227118 3.48929 0.436425 2.94812C0.652607 2.38878 0.942328 1.91426 1.41409 1.44084C1.8853 0.9677 2.35898 0.675762 2.91777 0.457923ZM3.50025 15.1356C3.80016 15.251 4.25016 15.3887 5.07885 15.4248C5.97555 15.4636 6.24406 15.4721 8.51308 15.4677C10.7829 15.4636 11.0515 15.4539 11.9479 15.4118C12.7757 15.3724 13.2257 15.2331 13.5248 15.1163C13.9217 14.9612 14.2042 14.7759 14.5011 14.4787C14.798 14.1805 14.9817 13.8971 15.1354 13.5002C15.251 13.2 15.3885 12.7498 15.4245 11.9211C15.4639 11.0249 15.4722 10.7561 15.4678 8.4865C15.4636 6.21744 15.454 5.94866 15.4113 5.05221C15.3722 4.22407 15.2331 3.77406 15.1161 3.47525C14.961 3.07784 14.7762 2.79583 14.4783 2.49867C14.1803 2.2015 13.8969 2.01836 13.4995 1.86469C13.2001 1.74874 12.7496 1.61159 11.9214 1.57551C11.0247 1.53613 10.7559 1.52814 8.48637 1.53255C6.21734 1.53695 5.94884 1.54604 5.05241 1.58846C4.224 1.62783 3.77454 1.76691 3.4749 1.88397C3.07833 2.03901 2.79577 2.22326 2.49862 2.52153C2.202 2.81978 2.01831 3.10262 1.86464 3.50031C1.74953 3.79995 1.61099 4.25051 1.57548 5.07865C1.53636 5.97537 1.52811 6.24416 1.53251 8.51321C1.53665 10.7828 1.54628 11.0516 1.58842 11.9475C1.62725 12.7762 1.76742 13.2256 1.88392 13.5256C2.03897 13.9219 2.22377 14.2044 2.52148 14.5016C2.81974 14.7977 3.10312 14.9819 3.50025 15.1356Z" fill="#E8E8E8"/>
</svg>
