<svg width="114" height="15" viewBox="0 0 114 15" fill="none" xmlns="http://www.w3.org/2000/svg">
<path d="M14.623 14.3359H12.5146V1.99309H12.1924L9.1416 14.331H5.4873L2.43652 8.11809H2.11328V14.331H0V6.61125H4.07617L7.14746 12.9013H7.4707L10.5469 0.481369H14.623V14.3359ZM40.2217 2.34856H33.1875V6.36809H39.6592V8.31926H33.1875V14.331H30.8457L30.8398 14.3359V0.398361H40.2217V2.34856ZM56.6309 14.3359H54.2197L53.2207 11.0488H47.2705L46.2705 14.3359H43.8447L48.1865 0.398361H52.3096L56.6309 14.3359ZM68.9004 12.9013H69.25L72.5713 0.398361H76.9805V14.3359H74.7002V2.5761H74.1748L71.0508 14.3359H67.0996L63.9756 2.5761H63.4502V14.3359H61.1699V0.398361H65.5791L68.9004 12.9013ZM85.2217 14.3359H82.8789V0.398361H85.2217V14.3359ZM93.4727 12.3857H100.787V14.3359H91.1299V0.398361H93.4727V12.3857ZM107.373 6.70891H107.701L111.351 0.398361H114L108.727 9.27922V14.3359H106.348V9.27922L101.073 0.398361H103.724L107.373 6.70891ZM47.8691 9.05656H52.6426L50.6855 2.5761H49.8252L47.8691 9.05656Z" fill="#E8E8E8"/>
</svg>
