<svg width="20" height="17" viewBox="0 0 20 17" fill="none" xmlns="http://www.w3.org/2000/svg">
<path d="M18.6914 0.284668C18.8399 0.282116 19.1726 0.32057 19.3877 0.499512C19.569 0.650564 19.6187 0.854408 19.6426 0.997559C19.6665 1.14081 19.6965 1.46718 19.6729 1.72217C19.4026 4.6325 18.2335 11.6947 17.6387 14.9546C17.387 16.3339 16.8909 16.797 16.4111 16.8423C15.3688 16.9404 14.577 16.136 13.5674 15.4575C11.987 14.3956 11.0936 13.734 9.55957 12.6978C7.78727 11.5004 8.93604 10.8417 9.94629 9.76611C10.2108 9.48454 14.8048 5.20228 14.8945 4.81299C14.9057 4.7644 14.9155 4.58347 14.8105 4.48779C14.7057 4.39224 14.5512 4.42468 14.4395 4.45068C14.281 4.48756 11.7558 6.19752 6.86523 9.58154C6.14865 10.0859 5.49951 10.3317 4.91797 10.3188C4.27688 10.3047 3.04373 9.94757 2.12695 9.64209C1.00247 9.2674 0.108701 9.06944 0.186523 8.43311C0.227087 8.10167 0.672494 7.76298 1.52246 7.4165C6.75656 5.07892 10.2466 3.53715 11.9932 2.79248C16.9792 0.666637 18.0161 0.297065 18.6914 0.284668Z" fill="#E8E8E8"/>
</svg>
