<svg width="21" height="13" viewBox="0 0 21 13" fill="none" xmlns="http://www.w3.org/2000/svg">
<g clip-path="url(#clip0_1575_953)">
<path d="M0.604219 0.0582288C1.17199 -0.0214044 2.62155 -0.014165 3.20334 0.0461632C3.40802 0.0673987 3.61317 0.138827 3.76551 0.284098C4.09215 0.595391 4.44683 1.90138 4.65104 2.40427C5.0861 3.47667 6.69688 6.83236 7.70484 7.24597C8.07588 7.398 8.2857 7.20543 8.31 6.81257C8.13383 5.24838 8.72543 2.73101 7.86419 1.39751C7.74597 1.2146 7.4782 0.997901 7.43521 0.781202C7.35484 0.376762 7.61933 0.0625724 8.00532 0.04375C9.18105 0.128209 10.4876 -0.0624276 11.647 0.04375C12.0577 0.0813948 12.2405 0.272032 12.2764 0.693847C12.411 2.25852 12.1447 4.03844 12.275 5.60842C12.4166 7.30871 13.9419 5.30678 14.3176 4.7812C15.0144 3.80726 15.612 2.68612 16.1387 1.60408C16.4915 0.878692 16.5335 0.120005 17.4728 0.04375C18.1154 -0.00837353 19.2621 -0.0127172 19.9014 0.04375C20.8883 0.131105 20.5677 0.922611 20.3047 1.57174C19.5878 3.33912 18.3415 4.7923 17.4322 6.40813C17.0952 7.00659 17.1784 7.12194 17.5924 7.63111C18.4093 8.63497 20.8958 10.8826 20.9953 12.1605C21.035 12.6731 20.7477 12.9052 20.2724 12.9545C19.6603 13.0177 18.4182 13.0114 17.7995 12.9569C16.9116 12.8782 16.099 11.592 15.4938 10.9549C14.9672 10.4004 13.7368 9.17454 12.997 9.10263C12.3503 9.03989 12.3129 9.29761 12.2727 9.89462C12.2232 10.6326 12.3755 11.6094 12.2718 12.302C12.1909 12.841 11.4185 12.9299 10.9942 12.9574C9.11002 13.0785 7.09595 12.1543 5.67676 10.9313C3.47298 9.03072 1.13788 4.91972 0.288324 2.09394C0.0897218 1.43323 -0.382251 0.196742 0.604219 0.0582288Z" fill="#E8E8E8"/>
</g>
<defs>
<clipPath id="clip0_1575_953">
<rect width="21" height="13" fill="white"/>
</clipPath>
</defs>
</svg>
