<svg width="21" height="21" viewBox="0 0 21 21" fill="none" xmlns="http://www.w3.org/2000/svg">
<path d="M10.1436 0.0947266C12.8029 0.0956953 15.3028 1.13706 17.1826 3.02637C19.0625 4.91596 20.0977 7.42845 20.0967 10.0996C20.0942 15.6115 15.6275 20.0956 10.1396 20.0957H10.1357C8.349 20.095 6.59617 19.613 5.06738 18.7021L4.7041 18.4854L0.935547 19.4785L1.94141 15.7891L1.7041 15.4111C0.707433 13.8196 0.180868 11.9797 0.181641 10.0908C0.183945 4.5792 4.65129 0.0947266 10.1436 0.0947266ZM5.89746 4.53613C5.69789 4.53623 5.3738 4.61143 5.09961 4.91211C4.8252 5.21301 4.05181 5.94 4.05176 7.41895C4.05176 8.89819 5.12473 10.3278 5.27441 10.5283C5.42615 10.7322 7.38678 13.7644 10.3877 15.0654C11.1017 15.375 11.659 15.5607 12.0938 15.6992C12.8108 15.928 13.4638 15.8948 13.9795 15.8174C14.5547 15.7311 15.7505 15.0906 16 14.3887C16.2491 13.687 16.2495 13.0857 16.1748 12.96C16.1 12.8346 15.8999 12.7589 15.6006 12.6084C15.3003 12.4575 13.8302 11.7313 13.5557 11.6309C13.2813 11.5306 13.0813 11.4805 12.8818 11.7812C12.6823 12.082 12.1093 12.7593 11.9346 12.96C11.76 13.1604 11.5851 13.1854 11.2861 13.0352C10.9868 12.8847 10.0223 12.5669 8.87891 11.543C7.98914 10.7462 7.38757 9.7629 7.21289 9.46191C7.03833 9.16113 7.19491 8.99846 7.34473 8.84863C7.4794 8.71393 7.64429 8.49672 7.79395 8.32129C7.94333 8.14608 7.99307 8.02058 8.09277 7.82031C8.19248 7.61976 8.14315 7.44433 8.06836 7.29395C7.99354 7.14353 7.395 5.66438 7.14551 5.0625C6.90257 4.47665 6.65539 4.55608 6.47168 4.54688C6.29728 4.53808 6.09699 4.53613 5.89746 4.53613Z" fill="#E8E8E8"/>
</svg>
