<svg width="21" height="15" viewBox="0 0 21 15" fill="none" xmlns="http://www.w3.org/2000/svg">
<path fill-rule="evenodd" clip-rule="evenodd" d="M19.8824 1.14316C20.2082 1.47561 20.4422 1.889 20.5609 2.34194C21 4.01371 21 7.5 21 7.5C21 7.5 21 10.9863 20.5609 12.6581C20.4422 13.111 20.2082 13.5244 19.8824 13.8568C19.5565 14.1893 19.1503 14.4292 18.7043 14.5524C17.0625 15 10.5 15 10.5 15C10.5 15 3.9375 15 2.29568 14.5524C1.84969 14.4292 1.44345 14.1893 1.11763 13.8568C0.791802 13.5244 0.557817 13.111 0.439091 12.6581C5.21541e-08 10.9863 0 7.5 0 7.5C0 7.5 5.21541e-08 4.01371 0.439091 2.34194C0.557817 1.889 0.791802 1.47561 1.11763 1.14316C1.44345 0.81071 1.84969 0.570848 2.29568 0.447581C3.9375 0 10.5 0 10.5 0C10.5 0 17.0625 0 18.7043 0.447581C19.1503 0.570848 19.5565 0.81071 19.8824 1.14316ZM13.8409 7.50003L8.35229 4.3343V10.6658L13.8409 7.50003Z" fill="#E8E8E8"/>
</svg>
